<svg width="17" height="17" viewBox="0 0 17 17" fill="none" xmlns="http://www.w3.org/2000/svg">
<g clip-path="url(#clip0_1_19)">
<path d="M2.76914 0.0929985C2.67617 0.126202 2.52675 0.209209 2.43378 0.275616C2.34082 0.345343 1.81289 0.85667 1.26171 1.4178C0.192574 2.50354 0.132808 2.57991 0.0464803 2.98499C-0.232426 4.30979 0.873238 6.82659 2.83222 9.32679C3.96445 10.7744 5.52168 12.3782 6.96269 13.5801C9.10761 15.3731 11.2359 16.5651 12.8762 16.8905C13.0721 16.9303 13.331 16.9469 13.6797 16.9502C14.4467 16.9502 14.3504 17.0133 15.6984 15.6619C16.9701 14.3836 16.9801 14.3703 16.9834 13.8789C16.9834 13.3776 16.9801 13.3742 15.4826 11.8834C14.533 10.9371 14.1545 10.5819 14.0416 10.5287C13.8324 10.4291 13.5535 10.3893 13.3344 10.4258C12.9758 10.4823 12.8562 10.5752 11.993 11.4584C11.143 12.3217 11.0699 12.3782 10.8641 12.3217C10.7146 12.2785 9.70527 11.4451 8.74902 10.5785C7.53379 9.47288 6.2123 8.08831 5.15976 6.82327C4.98046 6.60413 4.79785 6.37835 4.75468 6.31858C4.66836 6.19573 4.66171 6.0264 4.7414 5.90687C4.77129 5.86038 5.1664 5.46194 5.61464 5.02034C6.59746 4.05413 6.62402 4.01429 6.62402 3.50296C6.62402 2.97835 6.65058 3.01155 5.1498 1.51409C3.69218 0.0597954 3.69218 0.0597954 3.2041 0.0431938C3.01152 0.0332336 2.89199 0.0498352 2.76914 0.0929985Z" fill="#F8F8F8"/>
</g>
<defs>
<clipPath id="clip0_1_19">
<rect width="17" height="17" fill="white"/>
</clipPath>
</defs>
</svg>
