<svg width="18" height="18" viewBox="0 0 18 18" fill="none" xmlns="http://www.w3.org/2000/svg">
<g clip-path="url(#clip0_1_33)">
<path d="M2.34092 0.194513C2.09575 0.246309 1.8195 0.401701 1.62957 0.591621C1.33261 0.885138 1.1565 1.31678 1.09779 1.88654C1.0529 2.332 1.0529 15.668 1.09779 16.1134C1.1565 16.6832 1.33261 17.1148 1.62957 17.4083C2.14409 17.9229 2.91759 17.9712 3.76706 17.543C4.0295 17.4152 15.7045 10.7231 16.0118 10.5297C16.1189 10.4607 16.3226 10.288 16.4642 10.143C17.0132 9.58701 17.141 8.9689 16.8337 8.34389C16.7059 8.08145 16.3088 7.66017 16.0118 7.47025C15.7045 7.27687 4.0295 0.584717 3.76706 0.456951C3.63929 0.39134 3.43211 0.305014 3.30779 0.263575C3.05226 0.1807 2.56882 0.14617 2.34092 0.194513Z" fill="#7D7866"/>
</g>
<defs>
<clipPath id="clip0_1_33">
<rect width="17.68" height="17.68" fill="white" transform="translate(0.199982 0.160034)"/>
</clipPath>
</defs>
</svg>
